<?xml version="1.0" encoding="UTF-8" standalone="no" ?>
<!DOCTYPE svg PUBLIC "-//W3C//DTD SVG 1.1//EN" "http://www.w3.org/Graphics/SVG/1.1/DTD/svg11.dtd">
<svg xmlns="http://www.w3.org/2000/svg" xmlns:xlink="http://www.w3.org/1999/xlink" version="1.1" width="1280" height="1024" viewBox="0 0 1280 1024" xml:space="preserve">
<desc>Created with Fabric.js 3.6.3</desc>
<defs>
</defs>
<g transform="matrix(1 0 0 1 640 512)" id="background-logo"  >
<linearGradient id="SVGID_9_4_4_4_4_4_99008_99013" gradientUnits="userSpaceOnUse" gradientTransform="matrix(1 0 0 1 -640 -512)"  x1="0" y1="0" x2="0" y2="1024">
<stop offset="0%" style="stop-color:rgb(91,36,122);stop-opacity: 1"/>
<stop offset="100%" style="stop-color:rgb(27,206,223);stop-opacity: 1"/>
</linearGradient>
<rect style="stroke: none; stroke-width: 0; stroke-dasharray: none; stroke-linecap: butt; stroke-dashoffset: 0; stroke-linejoin: miter; stroke-miterlimit: 4; fill: url(#SVGID_9_4_4_4_4_4_99008_99013); fill-rule: nonzero; opacity: 1;"  paint-order="stroke"  x="-640" y="-512" rx="0" ry="0" width="1280" height="1024" />
</g>
<g transform="matrix(1.8360414258847557 0 0 1.8360414258847557 633.9658765180159 553.4557727467773)" id="shape-f257184a-d537-4ef4-abc8-11882d06c36a-logo"  >
<g style=""  paint-order="stroke"   >
		<g transform="matrix(1 0 0 1 0 0)" id="XMLID_111_"  >
<linearGradient id="SVGID_10_5_5_5_5_5_99009" gradientUnits="userSpaceOnUse" gradientTransform="matrix(1 0 0 1 0 4)"  x1="0" y1="0" x2="0" y2="143">
<stop offset="0%" style="stop-color:rgb(91,36,122);stop-opacity: 1"/>
<stop offset="100%" style="stop-color:rgb(27,206,223);stop-opacity: 1"/>
</linearGradient>
<path style="stroke: none; stroke-width: 1; stroke-dasharray: none; stroke-linecap: butt; stroke-dashoffset: 0; stroke-linejoin: miter; stroke-miterlimit: 4; fill: url(#SVGID_10_5_5_5_5_5_99009); fill-rule: nonzero; opacity: 1;"  paint-order="stroke"  transform=" translate(-100, -75.5)" d="M 0 58 h 30.7 c 7.9 -31 36 -54 69.3 -54 s 61.5 23 69.3 54 H 200 l -2.2 7.5 h -27 h -6.1 h -1.4 c -4.8 -30.5 -31.3 -54 -63.2 -54 s -58.4 23.4 -63.2 54 h -1.5 h -6.1 H 2.2 L 0 58 z M 190.8 89.5 h -20.7 h -6.2 h -1.4 c -6.4 28.6 -32 50 -62.4 50 s -56 -21.4 -62.4 -50 h -1.5 H 30 H 9.3 l 2.2 7.5 H 32 c 9.1 28.9 36.2 50 68.2 50 s 59 -21 68.2 -50 h 20.4 L 190.8 89.5 z M 152.8 75.5 c 0 -29.1 -23.7 -52.7 -52.7 -52.7 S 47.4 46.5 47.4 75.5 s 23.7 52.7 52.7 52.7 S 152.8 104.6 152.8 75.5 z" stroke-linecap="round" />
</g>
</g>
</g>
<g transform="matrix(1.9211538461538462 0 0 1.9211538461538462 878.7008651550616 645.0295098046194)" id="tagline-0628dc4e-7a67-48fe-a45e-12e2a3c918ce-logo-path"  >
<path style="stroke: none; stroke-width: 1; stroke-dasharray: none; stroke-linecap: butt; stroke-dashoffset: 0; stroke-linejoin: miter; stroke-miterlimit: 4; fill: rgb(0,0,0); fill-rule: nonzero; opacity: 1;"  paint-order="stroke"  transform=" translate(-99.94, 26.35)" d="M 11.62 -2.87 L 0.27 0.07 Q 7.38 -34.32 8.96 -48.74 L 8.96 -48.74 Q 16.88 -51.2 26.73 -51.2 L 26.73 -51.2 Q 34.11 -51.2 35.48 -46.07 L 35.48 -46.07 Q 35.89 -44.5 35.89 -42.18 Q 35.89 -39.85 34.93 -37.15 Q 33.97 -34.45 32.33 -31.99 L 32.33 -31.99 Q 28.92 -27 23.93 -24.34 L 23.93 -24.34 Q 26.59 -18.59 28.68 -13.5 Q 30.76 -8.41 32.2 -4.92 L 32.2 -4.92 L 21.33 -1.09 Q 16.06 -19.69 15.86 -22.22 L 15.86 -22.22 L 14.97 -21.94 Q 12.71 -9.37 11.62 -2.87 L 11.62 -2.87 Z M 19 -41.43 L 16.75 -30.28 Q 19.48 -30.56 23.65 -33.77 L 23.65 -33.77 Q 27.96 -37.05 27.96 -39.17 L 27.96 -39.17 Q 27.96 -41.15 24.2 -41.43 L 24.2 -41.43 Q 23.11 -41.49 22.01 -41.49 L 22.01 -41.49 L 19 -41.43 Z M 29.6 -0.41 L 29.6 -0.41 Q 32.4 -9.71 34.35 -16.13 Q 36.3 -22.56 37.53 -26.69 Q 38.76 -30.83 39.96 -34.9 Q 41.15 -38.96 42.28 -42.76 Q 43.41 -46.55 44.3 -49.7 L 44.3 -49.7 Q 56.94 -50.59 63.57 -51.88 L 63.57 -51.88 Q 62.96 -45.12 62.55 -35.89 L 62.55 -35.89 Q 61.66 -17.5 61.04 -1.98 L 61.04 -1.98 Q 58.99 -1.64 57.05 -1.37 Q 55.1 -1.09 53.01 -0.75 Q 50.93 -0.41 49.22 -0.14 L 49.22 -0.14 Q 49.97 -6.7 50.52 -11.96 L 50.52 -11.96 L 44.43 -11.96 L 41.63 -1.91 Q 40.06 -1.71 37.97 -1.44 Q 35.89 -1.16 33.84 -0.92 Q 31.79 -0.68 29.6 -0.41 Z M 52.02 -42.59 L 46.07 -18.94 L 51.13 -19.28 Q 51.13 -19.69 51.24 -20.68 Q 51.34 -21.67 51.47 -22.97 L 51.47 -22.97 Q 52.02 -30.28 52.64 -36.57 L 52.64 -36.57 L 53.12 -42.66 L 52.02 -42.59 Z M 70.82 -1.16 L 59.27 -0.41 Q 70.41 -34.04 74.38 -49.63 L 74.38 -49.63 Q 78.27 -49.63 81.69 -50.04 Q 85.11 -50.45 89.07 -50.79 L 89.07 -50.79 Q 88.87 -49.29 88.63 -47.37 Q 88.39 -45.46 88.08 -43.34 Q 87.77 -41.22 87.43 -39 Q 87.09 -36.78 86.58 -33.26 Q 86.06 -29.74 85.24 -24.47 L 85.24 -24.47 L 86.2 -24.47 Q 94.06 -45.6 96.59 -50.93 L 96.59 -50.93 Q 100.08 -51.34 102.3 -51.68 Q 104.52 -52.02 106.09 -52.26 Q 107.67 -52.5 109.51 -52.84 L 109.51 -52.84 Q 106.16 -33.02 103.91 -2.87 L 103.91 -2.87 L 91.67 -0.68 Q 91.67 -3.14 92.29 -8.61 L 92.29 -8.61 L 93.24 -16.82 Q 93.93 -23.04 94.54 -26.46 L 94.54 -26.46 L 93.93 -26.46 Q 92.97 -23.52 91.77 -20.27 Q 90.58 -17.02 89.35 -13.67 Q 88.12 -10.32 86.92 -7.08 Q 85.72 -3.83 84.83 -0.89 L 84.83 -0.89 Q 82.37 -0.82 80.66 -0.68 L 80.66 -0.68 L 76.56 -0.48 L 78.82 -26.46 L 77.79 -26.46 Q 77.66 -25.57 77.08 -23.41 Q 76.49 -21.26 75.78 -18.49 Q 75.06 -15.72 74.2 -12.75 Q 73.35 -9.78 72.6 -7.25 L 72.6 -7.25 Q 71.37 -2.87 70.82 -1.16 L 70.82 -1.16 Z M 105.68 -6.15 L 105.68 -6.15 L 110.88 -16.34 Q 111.84 -14.42 114.57 -12.85 L 114.57 -12.85 Q 117.3 -11.21 118.67 -11.21 Q 120.04 -11.21 120.96 -11.48 Q 121.88 -11.76 122.64 -12.3 L 122.64 -12.3 Q 124.35 -13.54 124.35 -15.28 Q 124.35 -17.02 123.25 -18.46 Q 122.16 -19.89 120.55 -21.19 Q 118.95 -22.49 117.07 -23.82 Q 115.19 -25.16 113.61 -26.66 L 113.61 -26.66 Q 109.79 -30.08 109.79 -33.84 Q 109.79 -37.6 111.94 -40.74 Q 114.09 -43.89 117.34 -46.18 Q 120.59 -48.47 124.45 -49.8 Q 128.31 -51.13 130.98 -51.13 Q 133.64 -51.13 135.32 -50.65 Q 136.99 -50.18 138.22 -49.22 L 138.22 -49.22 Q 140.89 -47.03 140.89 -42.79 L 140.89 -42.79 Q 140.89 -41.77 140.72 -40.81 Q 140.55 -39.85 140.41 -38.69 L 140.41 -38.69 L 130.29 -35.75 Q 130.63 -37.12 130.63 -38.62 Q 130.63 -40.13 129.88 -41.05 Q 129.13 -41.97 128.28 -41.97 Q 127.42 -41.97 126.6 -41.56 Q 125.78 -41.15 124.96 -40.47 L 124.96 -40.47 Q 123.05 -38.9 123.05 -37.08 Q 123.05 -35.27 124 -34.15 Q 124.96 -33.02 126.36 -32.06 Q 127.76 -31.1 129.4 -30.08 Q 131.04 -29.05 132.48 -27.48 L 132.48 -27.48 Q 135.76 -23.65 135.76 -17.29 L 135.76 -17.29 Q 135.76 -9.64 130.16 -4.65 L 130.16 -4.65 Q 124.82 0.14 116.69 0.14 L 116.69 0.14 Q 110.67 0.14 105.68 -6.15 Z M 133.3 -0.41 L 133.3 -0.41 Q 136.1 -9.71 138.05 -16.13 Q 140 -22.56 141.23 -26.69 Q 142.46 -30.83 143.66 -34.9 Q 144.85 -38.96 145.98 -42.76 Q 147.11 -46.55 148 -49.7 L 148 -49.7 Q 160.64 -50.59 167.28 -51.88 L 167.28 -51.88 Q 166.66 -45.12 166.25 -35.89 L 166.25 -35.89 Q 165.36 -17.5 164.75 -1.98 L 164.75 -1.98 Q 162.7 -1.64 160.75 -1.37 Q 158.8 -1.09 156.71 -0.75 Q 154.63 -0.41 152.92 -0.14 L 152.92 -0.14 Q 153.67 -6.7 154.22 -11.96 L 154.22 -11.96 L 148.13 -11.96 L 145.33 -1.91 Q 143.76 -1.71 141.67 -1.44 Q 139.59 -1.16 137.54 -0.92 Q 135.49 -0.68 133.3 -0.41 Z M 155.72 -42.59 L 149.78 -18.94 L 154.83 -19.28 Q 154.83 -19.69 154.94 -20.68 Q 155.04 -21.67 155.18 -22.97 L 155.18 -22.97 Q 155.72 -30.28 156.34 -36.57 L 156.34 -36.57 L 156.82 -42.66 L 155.72 -42.59 Z M 180.4 -2.53 L 168.44 -1.03 L 171.65 -15.11 Q 171.65 -23.58 170.97 -33.84 Q 170.28 -44.09 170.15 -45.66 L 170.15 -45.66 L 170.01 -47.17 L 181.43 -51.54 L 181.43 -39.38 L 181.36 -32.54 L 181.36 -29.94 Q 183.61 -35.55 188.74 -50.72 L 188.74 -50.72 L 199.61 -48.33 Q 195.85 -40.67 192.84 -34.45 L 192.84 -34.45 L 188.47 -25.43 Q 187.17 -22.7 185.9 -20.1 Q 184.64 -17.5 183.61 -15.24 L 183.61 -15.24 Q 182.59 -10.05 180.4 -2.53 L 180.4 -2.53 Z" stroke-linecap="round" />
</g>
<g transform="matrix(1.9211538461538462 0 0 1.9211538461538462 390.7225782604401 461.512256229895)" id="text-logo-path"  >
<path style="stroke: none; stroke-width: 1; stroke-dasharray: none; stroke-linecap: butt; stroke-dashoffset: 0; stroke-linejoin: miter; stroke-miterlimit: 4; fill: rgb(0,0,0); fill-rule: nonzero; opacity: 1;"  paint-order="stroke"  transform=" translate(-99.28999999999999, 25.565)" d="M 0.27 0.07 L 0.27 0.07 Q 2.32 -7.38 4.03 -17.23 L 4.03 -17.23 Q 7.25 -35.34 9.43 -50.31 L 9.43 -50.31 L 32.88 -51.54 L 30.9 -42.93 L 19.89 -42.93 L 17.71 -30.42 Q 19.89 -30.49 21.67 -30.49 L 21.67 -30.49 L 25.16 -30.49 Q 26.8 -30.49 27.75 -30.56 L 27.75 -30.56 L 26.59 -22.97 Q 25.29 -22.97 16.54 -23.24 L 16.54 -23.24 L 13.33 -2.6 Q 7.45 -1.57 0.27 0.07 Z M 26.04 -7.31 L 26.04 -7.31 Q 26.04 -7.59 26.04 -7.86 Q 26.04 -8.13 26.22 -9.71 Q 26.39 -11.28 27 -15.35 Q 27.62 -19.41 28.33 -23.82 Q 29.05 -28.23 29.87 -32.68 Q 30.69 -37.12 31.38 -40.74 L 31.38 -40.74 Q 32.88 -48.54 33.15 -49.77 L 33.15 -49.77 Q 34.66 -49.9 36.67 -50.11 Q 38.69 -50.31 40.64 -50.48 Q 42.59 -50.65 44.71 -50.86 L 44.71 -50.86 Q 42.93 -42.45 41.9 -37.53 Q 40.88 -32.61 40.26 -29.67 Q 39.65 -26.73 39.17 -24.27 L 39.17 -24.27 Q 38.08 -19.07 37.73 -17.5 L 37.73 -17.5 Q 36.71 -12.78 36.71 -11.42 Q 36.71 -10.05 37.29 -9.33 Q 37.87 -8.61 38.86 -8.61 Q 39.85 -8.61 40.64 -9.57 Q 41.43 -10.53 41.94 -11.83 Q 42.45 -13.13 42.72 -14.49 Q 43 -15.86 43.31 -17.26 Q 43.61 -18.66 44.13 -21.16 Q 44.64 -23.65 45.15 -26.35 Q 45.66 -29.05 46.21 -31.86 L 46.21 -31.86 Q 47.65 -39.03 49.56 -50.04 L 49.56 -50.04 L 60.16 -50.72 L 59.81 -48.95 Q 58.99 -44.64 58 -39 Q 57.01 -33.36 56.19 -29.26 L 56.19 -29.26 Q 54.07 -18.59 53.05 -14.12 Q 52.02 -9.64 50.21 -6.84 Q 48.4 -4.03 46.01 -2.19 L 46.01 -2.19 Q 41.43 1.23 35.41 1.23 L 35.41 1.23 Q 31.72 1.23 29.05 -0.82 L 29.05 -0.82 Q 26.04 -3.28 26.04 -7.31 Z M 64.8 -2.87 L 53.46 0.07 Q 60.57 -34.32 62.14 -48.74 L 62.14 -48.74 Q 70.07 -51.2 79.91 -51.2 L 79.91 -51.2 Q 87.29 -51.2 88.66 -46.07 L 88.66 -46.07 Q 89.07 -44.5 89.07 -42.18 Q 89.07 -39.85 88.12 -37.15 Q 87.16 -34.45 85.52 -31.99 L 85.52 -31.99 Q 82.1 -27 77.11 -24.34 L 77.11 -24.34 Q 79.78 -18.59 81.86 -13.5 Q 83.95 -8.41 85.38 -4.92 L 85.38 -4.92 L 74.51 -1.09 Q 69.25 -18.39 69.04 -20.85 L 69.04 -20.85 L 68.15 -20.58 Q 67.61 -17.43 66.51 -11.83 Q 65.42 -6.22 64.8 -2.87 L 64.8 -2.87 Z M 72.19 -41.43 L 69.93 -30.28 Q 72.67 -30.56 76.84 -33.77 L 76.84 -33.77 Q 81.14 -37.05 81.14 -39.17 L 81.14 -39.17 Q 81.14 -41.15 77.38 -41.43 L 77.38 -41.43 Q 76.29 -41.49 75.2 -41.49 L 75.2 -41.49 L 72.19 -41.43 Z M 83.88 -0.07 L 83.88 -0.07 Q 86.06 -8 87.91 -17.36 L 87.91 -17.36 Q 92.15 -38.76 93.93 -49.01 L 93.93 -49.01 L 104.86 -50.72 Q 97.07 -11.07 95.36 -1.37 L 95.36 -1.37 Q 93.45 -1.37 88.73 -0.75 Q 84.01 -0.14 83.88 -0.07 Z M 100.49 -14.08 L 100.49 -14.08 Q 100.49 -21.88 104.11 -30.9 L 104.11 -30.9 Q 107.73 -39.92 113.61 -45.94 L 113.61 -45.94 Q 119.97 -52.36 126.94 -52.36 L 126.94 -52.36 Q 132.69 -52.36 135.35 -47.71 L 135.35 -47.71 Q 137.47 -43.96 137.47 -36.3 L 137.47 -36.3 Q 137.47 -32.13 136.27 -27.07 Q 135.08 -22.01 133.03 -17.77 Q 130.98 -13.54 128.28 -10.19 Q 125.58 -6.84 122.64 -4.51 L 122.64 -4.51 Q 116.55 0.27 110.95 0.27 L 110.95 0.27 Q 106.23 0.27 103.5 -3.14 L 103.5 -3.14 Q 100.49 -6.9 100.49 -14.08 Z M 110.88 -15.86 L 110.88 -15.86 Q 110.88 -13.13 113.2 -11.76 L 113.2 -11.76 Q 113.89 -11.28 114.78 -11.28 L 114.78 -11.28 Q 117.92 -11.28 120.35 -13.43 Q 122.77 -15.59 124.41 -18.73 Q 126.05 -21.88 126.91 -25.46 Q 127.76 -29.05 127.76 -31.99 L 127.76 -31.99 Q 127.76 -37.67 124.48 -37.67 L 124.48 -37.67 Q 120.31 -37.67 116.96 -33.56 L 116.96 -33.56 Q 114.3 -30.28 112.38 -24.61 L 112.38 -24.61 Q 110.88 -19.96 110.88 -15.86 Z M 135.01 -7.31 L 135.01 -7.31 Q 135.01 -7.59 135.01 -7.86 Q 135.01 -8.13 135.18 -9.71 Q 135.35 -11.28 135.97 -15.35 Q 136.58 -19.41 137.3 -23.82 Q 138.02 -28.23 138.84 -32.68 Q 139.66 -37.12 140.34 -40.74 L 140.34 -40.74 Q 141.85 -48.54 142.12 -49.77 L 142.12 -49.77 Q 143.62 -49.9 145.64 -50.11 Q 147.66 -50.31 149.6 -50.48 Q 151.55 -50.65 153.67 -50.86 L 153.67 -50.86 Q 151.89 -42.45 150.87 -37.53 Q 149.84 -32.61 149.23 -29.67 Q 148.61 -26.73 148.13 -24.27 L 148.13 -24.27 Q 147.04 -19.07 146.7 -17.5 L 146.7 -17.5 Q 145.67 -12.78 145.67 -11.42 Q 145.67 -10.05 146.25 -9.33 Q 146.84 -8.61 147.83 -8.61 Q 148.82 -8.61 149.6 -9.57 Q 150.39 -10.53 150.9 -11.83 Q 151.42 -13.13 151.69 -14.49 Q 151.96 -15.86 152.27 -17.26 Q 152.58 -18.66 153.09 -21.16 Q 153.6 -23.65 154.12 -26.35 Q 154.63 -29.05 155.18 -31.86 L 155.18 -31.86 Q 156.61 -39.03 158.53 -50.04 L 158.53 -50.04 L 169.12 -50.72 L 168.78 -48.95 Q 167.96 -44.64 166.97 -39 Q 165.98 -33.36 165.16 -29.26 L 165.16 -29.26 Q 163.04 -18.59 162.01 -14.12 Q 160.99 -9.64 159.17 -6.84 Q 157.36 -4.03 154.97 -2.19 L 154.97 -2.19 Q 150.39 1.23 144.38 1.23 L 144.38 1.23 Q 140.68 1.23 138.02 -0.82 L 138.02 -0.82 Q 135.01 -3.28 135.01 -7.31 Z M 163.11 -6.15 L 163.11 -6.15 L 168.3 -16.34 Q 169.26 -14.42 171.99 -12.85 L 171.99 -12.85 Q 174.73 -11.21 176.09 -11.21 Q 177.46 -11.21 178.38 -11.48 Q 179.31 -11.76 180.06 -12.3 L 180.06 -12.3 Q 181.77 -13.54 181.77 -15.28 Q 181.77 -17.02 180.67 -18.46 Q 179.58 -19.89 177.97 -21.19 Q 176.37 -22.49 174.49 -23.82 Q 172.61 -25.16 171.04 -26.66 L 171.04 -26.66 Q 167.21 -30.08 167.21 -33.84 Q 167.21 -37.6 169.36 -40.74 Q 171.51 -43.89 174.76 -46.18 Q 178.01 -48.47 181.87 -49.8 Q 185.73 -51.13 188.4 -51.13 Q 191.06 -51.13 192.74 -50.65 Q 194.41 -50.18 195.64 -49.22 L 195.64 -49.22 Q 198.31 -47.03 198.31 -42.79 L 198.31 -42.79 Q 198.31 -41.77 198.14 -40.81 Q 197.97 -39.85 197.83 -38.69 L 197.83 -38.69 L 187.71 -35.75 Q 188.06 -37.12 188.06 -38.62 Q 188.06 -40.13 187.3 -41.05 Q 186.55 -41.97 185.7 -41.97 Q 184.84 -41.97 184.02 -41.56 Q 183.2 -41.15 182.38 -40.47 L 182.38 -40.47 Q 180.47 -38.9 180.47 -37.08 Q 180.47 -35.27 181.43 -34.15 Q 182.38 -33.02 183.78 -32.06 Q 185.19 -31.1 186.83 -30.08 Q 188.47 -29.05 189.9 -27.48 L 189.9 -27.48 Q 193.18 -23.65 193.18 -17.29 L 193.18 -17.29 Q 193.18 -9.64 187.58 -4.65 L 187.58 -4.65 Q 182.25 0.14 174.11 0.14 L 174.11 0.14 Q 168.1 0.14 163.11 -6.15 Z" stroke-linecap="round" />
</g>
<g transform="matrix(0.9478551674590807 0 0 0.9478551674590808 633.965876518016 553.4184309945236)" id="logo-logo"  >
<g style=""  paint-order="stroke"   >
		<g transform="matrix(0.05128 0 0 -0.05128 0 0)"  >
<linearGradient id="SVGID_13_8_8_8_8_8_99012" gradientUnits="userSpaceOnUse" gradientTransform="matrix(1 0 0 1 4126.929999999999 9166.669999999998)"  x1="0" y1="0" x2="0" y2="5667">
<stop offset="0%" style="stop-color:rgb(23,234,217);stop-opacity: 1"/>
<stop offset="100%" style="stop-color:rgb(96,120,234);stop-opacity: 1"/>
</linearGradient>
<path style="stroke: none; stroke-width: 1; stroke-dasharray: none; stroke-linecap: butt; stroke-dashoffset: 0; stroke-linejoin: miter; stroke-miterlimit: 4; fill: url(#SVGID_13_8_8_8_8_8_99012); fill-rule: nonzero; opacity: 1;"  paint-order="stroke"  transform=" translate(-6015.814999999999, -11999.985)" d="m 5341.62 11192.6 c 19.26 -46.7 40.52 -92.2 62.91 -137 h -452.12 c 4.13 4.5 8.04 8.9 12.36 13.6 c 73.61 81.1 174.12 186.8 278.34 288.3 c 10.35 10.1 20.78 19.9 31.19 29.9 l 19.93 -66.5 c 14.32 -43.6 30.18 -86.3 47.39 -128.3 z m 682.61 -102.1 c -44.43 10.5 -87.1 23.5 -129.4 37.3 c -71.28 23.9 -140.74 50.8 -209.27 79.4 c -68.47 28.8 -136.08 59.2 -203.08 91.2 l -34.4 17.1 c 6.92 -25.3 13.36 -50.6 21.43 -75.7 c 20.17 -62.3 44.64 -123.6 71.06 -184.2 h 454.47 l 20.01 23.9 z m -839.55 319.2 c 44.09 56.8 89.4 112.5 133.15 164.5 c -81.52 -50.9 -152.15 -87.6 -206.32 -102.9 c -96.21 -27 -399.1 153.6 -596.75 359.9 l -387.83 -775.6 h 798.83 c 6.35 9.3 12.88 18.8 19.82 28.9 c 62.37 90.5 148.33 209.4 239.1 325.2 z m -337.43 508.6 c 197.09 34 805.33 641.1 1309.53 1026.1 h -140.96 v 518 c -61.49 -42.6 -121.88 -86.8 -179.32 -134.7 c -73.89 -61.8 -144.12 -128.3 -205.52 -200.9 l 86.36 -107.9 l 20.88 -26.1 l -25.11 -19.6 c -129.41 -101.1 -240.09 -231.7 -339.13 -367.4 c -49.35 -68.4 -95.66 -139.1 -137.3 -212.6 c -41.25 -73.7 -79.13 -149.8 -102.97 -231.4 c 18.66 82.9 51.93 162.1 88.78 238.8 c 37.26 76.6 79.44 150.9 124.96 223.1 c 86.05 134.5 181.84 263.7 301.19 375.6 l -94.69 104 l -19.43 21.4 l 17.76 25.1 c 64.9 91.9 140.78 173 220.81 249.1 c 76.68 72.5 158.06 139.7 242.73 202.7 v 1231.7 L 4877.74 12557.2 c 0.07 -5.5 -0.15 -11.1 -0.06 -16.6 c 1.91 -84.3 7.7 -168.7 18.86 -252.4 c 11.54 -83.6 27.32 -167.2 57.53 -246.6 c -35.18 77.3 -56.43 160.6 -73.32 243.9 c -14.12 71.3 -23.68 143.5 -30.91 215.9 l -335.08 -670.2 l 71.03 142.1 c 102.01 -43 205.36 -64.7 261.46 -55 z m 2574.52 1026.1 c 138.32 -58.1 273.19 -121.1 388.94 -187.9 l 93.99 187.9 z m -173.11 -611.2 c -153.92 -5.6 -306.07 -21.1 -439.38 -41.1 c -0.52 -2.3 -1.13 -4.4 -1.66 -6.7 c 67.03 -3.7 137.44 -8.2 209.21 -14.2 c 139.75 -11.8 279.23 -28.2 382.6 -48.8 c 51.72 -10 94.16 -21.5 123.41 -30.5 c 1.77 -0.6 3.04 -1.1 4.71 -1.8 l -2.77 -5.5 l 73.48 146.9 c -110.91 6.1 -230.28 7.1 -349.6 1.7 z m -661.37 -1383.4 c -91.72 -1.4 -183.57 1 -275.77 7.6 c -46.11 3.4 -92.26 7.6 -138.72 14.8 c -23.19 2.9 -46.55 7.6 -69.98 12.5 c -23.28 3.8 -47.35 12.4 -71.12 18.8 l -15.88 4.3 v -392.4 c 54.25 -57.2 116.04 -110.3 178.01 -161.4 c 83.8 -68.3 170.78 -133.2 260.14 -194.8 c 26.73 -18.4 53.99 -36.1 81.08 -54.1 l -12.21 -24.4 c -28.88 17.2 -57.9 34 -86.45 51.7 c -92.91 57.5 -183.66 118.6 -272.02 183.6 c -44.17 32.6 -87.8 66 -129.76 102.1 c -6.49 5.2 -12.48 11.3 -18.79 16.8 V 9166.67 l 901.84 1803.73 c -18.67 -2.2 -37.23 -5.2 -55.95 -6.9 c -91.17 -8.3 -182.71 -12.5 -274.42 -13.7 z M 6748 12558.5 c -86.3 -16.9 -220.75 -97.2 -377.44 -207 c 11.28 2.5 24.17 5.3 40.38 8.9 c 23.32 5.8 55.52 10.4 90.94 16.5 c 35.89 6.6 75.42 11.5 118.35 16.3 c 172.04 20.7 401.05 29.8 628.74 18.4 c 128.02 -5.4 255.19 -17.9 371.75 -35.1 l 134.74 269.5 c -356.82 8 -891.61 -64.8 -1007.46 -87.5 z m 648.42 -360.4 c -103.67 5.8 -242.41 2.5 -380.73 -5.3 c -81.55 -4.6 -162.08 -10.9 -236.3 -17.5 c -191.95 -680.4 -574.01 -900.3 -904.21 -907.5 c 20.35 -8.7 40.66 -17.7 61.12 -25.8 c 65.61 -25.7 133.34 -49.3 196.61 -59.9 l 115.34 -19.5 l -82.28 -73.3 l -26.68 -23.8 c 57.66 -16.6 119.32 -28.6 180.3 -38.6 c 88.75 -14 178.79 -24.1 269.12 -30.5 c 90.35 -6.5 181.07 -10.1 271.83 -9.6 c 22.21 0.1 44.37 1.7 66.57 2.4 l 597.67 1195.4 c -1.29 0.3 -2.24 0.5 -3.58 0.8 c -30.03 4.7 -72.92 10 -124.78 12.7" stroke-linecap="round" />
</g>
		<g transform="matrix(0.05128 0 0 -0.05128 7.533389999999997 5.580559999999991)"  >
<path style="stroke: none; stroke-width: 1; stroke-dasharray: none; stroke-linecap: butt; stroke-dashoffset: 0; stroke-linejoin: miter; stroke-miterlimit: 4; fill: rgb(35,31,32); fill-rule: nonzero; opacity: 1;"  paint-order="stroke"  transform=" translate(-6162.735000000002, -11891.150000000001)" d="m 5236.68 12393.2 c -41.25 -73.7 -79.13 -149.8 -102.97 -231.4 c 18.66 82.9 51.93 162.1 88.78 238.8 c 37.26 76.6 79.44 150.9 124.96 223.1 c 86.05 134.5 181.84 263.7 301.19 375.6 l -94.69 104 l -19.43 21.4 l 17.76 25.1 c 64.9 91.9 140.78 173 220.81 249.1 c 76.68 72.5 158.06 139.7 242.73 202.7 v -139.2 c -61.49 -42.6 -121.88 -86.8 -179.32 -134.7 c -73.89 -61.8 -144.12 -128.3 -205.52 -200.9 l 86.36 -107.9 l 20.88 -26.1 l -25.11 -19.6 c -129.41 -101.1 -240.09 -231.7 -339.13 -367.4 c -49.35 -68.4 -95.66 -139.1 -137.3 -212.6 z m -282.61 -351.6 c -30.21 79.4 -45.99 163 -57.53 246.6 c -11.16 83.7 -16.95 168.1 -18.86 252.4 c -0.09 5.5 0.13 11.1 0.06 16.6 l -27.9 -55.8 c 7.23 -72.4 16.79 -144.6 30.91 -215.9 c 16.89 -83.3 38.14 -166.6 73.32 -243.9 z m 2856.64 714.9 l -55.25 -110.5 c -356.82 8 -891.61 -64.8 -1007.46 -87.5 c -86.3 -16.9 -220.75 -97.2 -377.44 -207 c 11.28 2.5 24.17 5.3 40.38 8.9 c 23.32 5.8 55.52 10.4 90.94 16.5 c 35.89 6.6 75.42 11.5 118.35 16.3 c 172.04 20.7 401.05 29.8 628.74 18.4 c 128.02 -5.4 255.19 -17.9 371.75 -35.1 l -22.46 -45 c -110.91 6.1 -230.28 7.1 -349.6 1.7 c -153.92 -5.6 -306.07 -21.1 -439.38 -41.1 c -0.52 -2.3 -1.13 -4.4 -1.66 -6.7 c 67.03 -3.7 137.44 -8.2 209.21 -14.2 c 139.75 -11.8 279.23 -28.2 382.6 -48.8 c 51.72 -10 94.16 -21.5 123.41 -30.5 c 1.77 -0.6 3.04 -1.1 4.71 -1.8 l -2.77 -5.5 c -1.29 0.3 -2.24 0.5 -3.58 0.8 c -30.03 4.7 -72.92 10 -124.78 12.7 c -103.67 5.8 -242.41 2.5 -380.73 -5.3 c -81.55 -4.6 -162.08 -10.9 -236.3 -17.5 c -191.95 -680.4 -574.01 -900.3 -904.21 -907.5 c 20.35 -8.7 40.66 -17.7 61.12 -25.8 c 65.61 -25.7 133.34 -49.3 196.61 -59.9 l 115.34 -19.5 l -82.28 -73.3 l -26.68 -23.8 c 57.66 -16.6 119.32 -28.6 180.3 -38.6 c 88.75 -14 178.79 -24.1 269.12 -30.5 c 90.35 -6.5 181.07 -10.1 271.83 -9.6 c 22.21 0.1 44.37 1.7 66.57 2.4 l -9.45 -18.8 c -18.67 -2.2 -37.23 -5.2 -55.95 -6.9 c -91.17 -8.3 -182.71 -12.5 -274.42 -13.7 c -91.72 -1.4 -183.57 1 -275.77 7.6 c -46.11 3.4 -92.26 7.6 -138.72 14.8 c -23.19 2.9 -46.55 7.6 -69.98 12.5 c -23.28 3.8 -47.35 12.4 -71.12 18.8 l -15.88 4.3 v 47.8 h -20.78 l 20.01 23.9 l 9.18 11 c -44.43 10.5 -87.1 23.5 -129.4 37.3 c -71.28 23.9 -140.74 50.8 -209.27 79.4 c -68.47 28.8 -136.08 59.2 -203.08 91.2 l -34.4 17.1 c 6.92 -25.3 13.36 -50.6 21.43 -75.7 c 20.17 -62.3 44.64 -123.6 71.06 -184.2 h -136.04 c -22.39 44.8 -43.65 90.3 -62.91 137 c -17.21 42 -33.07 84.7 -47.39 128.3 l -19.93 66.5 c -10.41 -10 -20.84 -19.8 -31.19 -29.9 c -104.22 -101.5 -204.73 -207.2 -278.34 -288.3 c -4.32 -4.7 -8.23 -9.1 -12.36 -13.6 h -26.65 c 6.35 9.3 12.88 18.8 19.82 28.9 c 62.37 90.5 148.33 209.4 239.1 325.2 c 44.09 56.8 89.4 112.5 133.15 164.5 c -81.52 -50.9 -152.15 -87.6 -206.32 -102.9 c -96.21 -27 -399.1 153.6 -596.75 359.9 l 71.03 142.1 c 102.01 -43 205.36 -64.7 261.46 -55 c 197.09 34 805.33 641.1 1309.53 1026.1 h 1264.99 c 138.32 -58.1 273.19 -121.1 388.94 -187.9 z M 5504.09 11636.1 c 179.22 -329 863.85 -314.1 1070.69 596.7 c -369.73 -54.6 -797.8 -329.3 -1070.69 -596.7 z M 6193.83 10454 c -61.97 51.1 -123.76 104.2 -178.01 161.4 v -80.5 c 6.31 -5.5 12.3 -11.6 18.79 -16.8 c 41.96 -36.1 85.59 -69.5 129.76 -102.1 c 88.36 -65 179.11 -126.1 272.02 -183.6 c 28.55 -17.7 57.57 -34.5 86.45 -51.7 l 12.21 24.4 c -27.09 18 -54.35 35.7 -81.08 54.1 c -89.36 61.6 -176.34 126.5 -260.14 194.8" stroke-linecap="round" />
</g>
		<g transform="matrix(0.05128 0 0 -0.05128 1.21087 8.385110000000054)"  >
<path style="stroke: none; stroke-width: 1; stroke-dasharray: none; stroke-linecap: butt; stroke-dashoffset: 0; stroke-linejoin: miter; stroke-miterlimit: 4; fill: rgb(255,255,255); fill-rule: nonzero; opacity: 1;"  paint-order="stroke"  transform=" translate(-6039.43, -11836.45433158687)" d="m 5504.08 11636.1 c 272.9 267.4 700.97 542.1 1070.7 596.7 c -206.84 -910.8 -891.47 -925.7 -1070.7 -596.7" stroke-linecap="round" />
</g>
</g>
</g>
</svg>